<?xml version="1.0" encoding="UTF-8" standalone="no"?>
<svg
   xmlns:dc="http://purl.org/dc/elements/1.1/"
   xmlns:cc="http://creativecommons.org/ns#"
   xmlns:rdf="http://www.w3.org/1999/02/22-rdf-syntax-ns#"
   xmlns:svg="http://www.w3.org/2000/svg"
   xmlns="http://www.w3.org/2000/svg"
   xmlns:sodipodi="http://sodipodi.sourceforge.net/DTD/sodipodi-0.dtd"
   xmlns:inkscape="http://www.inkscape.org/namespaces/inkscape"
   version="1.0"
   width="900.000000pt"
   height="741.000000pt"
   viewBox="0 0 900.000000 741.000000"
   preserveAspectRatio="xMidYMid meet"
   id="svg24"
   sodipodi:docname="Logo.svg"
   inkscape:version="1.0.1 (3bc2e813f5, 2020-09-07)"
   inkscape:export-filename="/home/peter/Arbeit/Projects/Hugo/pmoscode/Logo-icon.png"
   inkscape:export-xdpi="12.097281"
   inkscape:export-ydpi="12.097281">
  <defs
     id="defs28" />
  <sodipodi:namedview
     pagecolor="#ffffff"
     bordercolor="#666666"
     borderopacity="1"
     objecttolerance="10"
     gridtolerance="10"
     guidetolerance="10"
     inkscape:pageopacity="0"
     inkscape:pageshadow="2"
     inkscape:window-width="1856"
     inkscape:window-height="1024"
     id="namedview26"
     showgrid="false"
     inkscape:zoom="0.47314226"
     inkscape:cx="647.58354"
     inkscape:cy="540.6634"
     inkscape:window-x="64"
     inkscape:window-y="28"
     inkscape:window-maximized="1"
     inkscape:current-layer="svg24"
     inkscape:document-rotation="0" />
  <metadata
     id="metadata2">
Created by potrace 1.10, written by Peter Selinger 2001-2011
<rdf:RDF>
  <cc:Work
     rdf:about="">
    <dc:format>image/svg+xml</dc:format>
    <dc:type
       rdf:resource="http://purl.org/dc/dcmitype/StillImage" />
    <dc:title />
  </cc:Work>
</rdf:RDF>
</metadata>
  <path
     d="m 211.69959,4.7664613 c -5.03017,1.993814 -6.1007,2.698508 -8.7007,4.0985077 -10.8,6 -17.9,14 -22,24.8 -2.1,5.7 -2.1,6.2 -2.7,117.000001 -0.4,97.4 -0.7,111.4 -2,112.2 -0.9,0.6 -34.6,1 -86.299995,1 -83.4000004,0 -84.6999999,0 -86.6999999,2 -2,2 -2,3.3 -2,236.8 0,226.3 0.1,235 1.8,236.5 1.7,1.6 19.6999999,1.7 237.7999949,1.7 202.2,0 236.3,-0.2 238,-1.4 1.8,-1.4 1.9,-3.1 2.2,-38.4 0.3,-42.1 0,-40.4 7.9,-37.8 7.7,2.5 15.8,2.8 32.3,1.2 17.6,-1.6 19,-1.3 19,4 0,7.5 -5.4,14.7 -13.8,18.4 -2.5,1.1 -5.4,2.8 -6.4,3.7 -2.2,1.9 -2.3,7.1 -0.3,9.9 0.8,1.2 8.9,5.6 18,9.8 17.9,8.4 24.5,10.1 34.5,8.9 7.2,-0.8 10.9,-2.5 26.9,-12.2 7.4,-4.4 14,-8.1 14.7,-8.1 2.9,0 5.6,3.7 6.1,8.3 0.7,5.9 -1.5,12.1 -6.4,17.9 -5,6 -5.7,8.3 -3.6,11.8 2.8,4.8 5.4,5.3 26.5,4.8 18.5,-0.4 19.6,-0.5 26.1,-3.3 8.4,-3.6 15,-10.1 24.3,-24 10.9,-16.4 12.8,-17.8 17.7,-12.8 5.4,5.7 7.1,14 4.2,21 -2.1,4.9 -1.9,8.5 0.6,11.7 2.8,3.5 7.2,3.4 15.7,-0.5 21.9,-10.1 25.7,-12.3 32.2,-18.9 8.1,-8.1 10.2,-13.3 13,-31.2 3.4,-22.4 4.2,-23.6 12.1,-19.7 5.7,2.7 9.4,7.7 10.9,14.2 2.7,12 5.7,15.3 11.9,12.7 2.9,-1.2 18.9,-19.2 25.1,-28.3 7,-10.3 8.8,-23.2 5.1,-35.8 -1,-3.5 -3.1,-10.6 -4.6,-15.7 -3.1,-10.4 -2.8,-13.8 1.1,-14.8 4,-1 10.2,0.2 14,2.8 1.9,1.2 5.4,4.9 7.9,8 5,6.5 8.2,7.9 12.1,5.3 3.2,-2.1 4.8,-5.8 9.2,-22 2.9,-10.6 3.6,-14.8 3.6,-22.5 0,-8.3 -0.4,-10.3 -2.8,-15.7 -4,-8.8 -3.6,-9.7 5.3,-10.5 5.3,-0.4 8.26952,-0.6914 11.05047,-1.97881 2.98565,-1.53829 2.74248,-1.65881 4.06798,-3.60238 1.55774,-2.28411 0.98155,-5.31881 0.98155,-28.91881 0,-24.7 -1.47542,-26.89301 -1.84429,-28.73982 -0.67693,-3.38916 -0.57788,-2.73006 -1.44512,-6.40055 -3.6,-19.3 -7.71059,-31.35963 -15.21059,-52.15963 -2,-5.6 -9.9,-21.8 -13.9,-28.5 -1.6,-2.8 -3.4,-5.9 -4,-7 -0.6,-1.1 -3.8,-6 -7.1,-10.9 l -6,-8.8 0.3,-15.8 c 0.4,-17.9 0.2,-18.8 -7,-25.6 -6.7,-6.5 -7.2,-6.6 -25.1,-6.2 l -16.2,0.3 -5.5,-4.1 c -18,-13.3 -45.7,-26.8 -70.5,-34.2 -15.4,-4.6 -42.2,-9.2 -54.2,-9.2 -5.3,0 -8.8,-1.6 -10.2,-4.6 -0.7,-1.7 -1.1,-35.2 -1.1,-113.2 0,-122.400001 0.2,-117.300001 -6.4,-127.500001 -5.04199,-6.318726 -6.54176,-7.805579 -13.56678,-14.148488 -3.70576,-2.9691677 -8.40202,-5.9354357 -11.47316,-5.9776197 -4.09285,-0.742355 -55.66006,-0.573892 -208.06006,-0.573892 -162.9,0 -198.27795,-0.418284 -207.0993,0.901492 z m 409.5993,22.1985077 c 6,1.3 11.1,5.3 14.3,11.3 l 2.2,4.1 V 154.56497 c 0,102.8 -0.1,112.4 -1.6,113.9 -1.1,1.1 -5.2,2.1 -12,3 -19.1,2.5 -45.2,9.4 -58.9,15.6 -11.5,5.2 -26.2,12.6 -33,16.7 -10.9,6.5 -29.4,20.4 -37.5,28.1 -8.2,7.9 -10.7,9.4 -12.3,7.8 -0.9,-0.9 -1.2,-10.9 -1.2,-35.6 0,-34 -0.3,-37.4 -3.4,-39.4 -0.6,-0.4 -62.8,-0.8 -138.1,-0.8 -105.3,0 -137.4,-0.3 -138.3,-1.2 -0.9,-0.9 -1.2,-26.9 -1.2,-111 0,-106.200001 0.1,-110.000001 1.9,-113.600001 2.8,-5.5 7.4,-9.3 12.8,-10.8 6.4,-1.7 398.3,-2 406.3,-0.3 z m 67.5,261.000001 c 29.2,4.4 56.8,14.2 82.3,29.4 17.6,10.5 20,13.6 14.6,18.6 -4.9,4.5 -8.4,10.1 -8.4,13.5 0,2.5 1.1,4.5 5,8.7 2.8,3 5,6.3 5,7.3 0,2.1 -40.1,42.8 -44.4,45.1 -2.8,1.5 -3,1.4 -13,-5.5 -37.9,-26.1 -81,-30.7 -123.6,-13.4 -29.3,12 -55.3,37.7 -67.4,67.1 -7.6,18.2 -9.9,29.8 -9.9,50.5 0.1,16.8 1.6,15.8 -24.8,15.4 -17.3,-0.2 -21.1,-0.6 -21.9,-1.8 -1.3,-2 -1.3,-143 0,-145 0.8,-1.3 10.3,-1.6 71.7,-2 l 70.8,-0.5 6,-2.5 c 10.2,-4.1 18.8,-11.8 23.5,-21 3.2,-6.2 4.1,-14.3 4.4,-38.7 0.2,-13.2 0.6,-24.5 1,-25.2 2.1,-3.3 6.8,-3.3 29.1,0 z m -51.4,1.6 c 0.7,1.8 0.9,11.2 0.7,25.8 l -0.3,23 -2.8,4.8 c -1.5,2.6 -4.7,6 -6.9,7.5 l -4.2,2.7 -60,0.3 c -33.1,0.1 -61.1,0 -62.3,-0.3 -3.5,-0.8 -2.8,-2.6 3.5,-8.6 24.7,-23.9 58.1,-42.1 96.7,-52.7 8.5,-2.4 23.3,-4.9 29.8,-5.1 4.3,-0.1 4.8,0.1 5.8,2.6 z m -460.3,27 c 0.5,1 1.2,6.7 1.5,12.8 0.9,16.1 3.7,23.6 12.6,33.8 2.70302,3.08916 4.97428,5.11327 5.22187,6.30732 0.20124,0.97052 -1.22161,1.39268 -2.52187,1.39268 -3.4,0 -4.1,3.2 -4.6,20.2 -0.5,15.3 -0.7,17.1 -2.4,18.4 -1.7,1.2 -12.5,1.4 -66.9,1.4 -42.799995,0 -65.499995,-0.4 -66.799995,-1 -1.8,-1 -1.9,-2.5 -1.9,-37.8 0,-36.5 0,-36.7 2.4,-41.7 1.3,-2.8 4.1,-6.7 6.2,-8.7 7.1,-6.8 6.1,-6.7 64.099995,-6.7 48.8,-0.1 52.3,0 53.1,1.6 z m 183.2,-0.2 c 3.5,4.2 1.8,15.9 -2.7,17.6 -1.4,0.5 -24,0.9 -53.1,0.9 -30.9,0 -52.1,0.4 -54.3,1 -4.6,1.3 -12.5,8.2 -14.4,12.5 -2,4.8 -4.5,5.8 -14,5.3 -9.8,-0.5 -14.3,-2.8 -18.6,-9.7 -2.7,-4.3 -2.9,-5.1 -2.9,-15.6 0,-7.3 0.4,-11.5 1.2,-12.3 0.9,-0.9 19.9,-1.2 79.4,-1.2 67.3,0 78.3,0.2 79.4,1.5 z m 54.2,0 c 9.5,3.3 15.7,13 16.5,25.8 0.8,12.5 2.9,11.7 -31.8,11.7 -33.2,0 -33.2,0 -26.1,-7.3 5.4,-5.5 6.9,-9.5 7.7,-20.3 0.5,-6.3 1.2,-9.3 2.3,-10.2 2.4,-1.8 25.6,-1.6 31.4,0.3 z m 416.4,20 c 0.9,1.2 1.4,4.5 1.4,9.1 0,6.9 -0.2,7.4 -4,12.2 -2.1,2.8 -5.5,6.2 -7.5,7.7 -2.9,2.3 -3.8,2.5 -5,1.5 -2.4,-2 -1.8,-3.6 3.1,-9.1 3.8,-4.3 4.5,-5.6 4.2,-8.6 -0.2,-2.5 -1.1,-4.2 -3,-5.6 -3.4,-2.5 -6.6,-1.8 -11.6,2.7 -6.5,5.9 -10.2,6.8 -10.2,2.7 0,-2 10.3,-12.8 13.5,-14.2 1.1,-0.5 5.5,-0.8 9.8,-0.6 6.4,0.2 8.1,0.6 9.3,2.2 z m -401.2,41.1 c 2.3,2.3 2.3,29.5 0,31.8 -1.4,1.4 -8.8,1.6 -67,1.6 -43.3,0 -66.2,-0.4 -67.5,-1 -1.7,-1 -1.9,-2.3 -1.9,-16.5 0,-13.6 0.2,-15.5 1.8,-16.4 1.1,-0.7 24.6,-1 67.4,-1.1 58.4,0 65.8,0.2 67.2,1.6 z m 408.3,1.6 c 2.5,2.8 7.7,10.9 13,20.3 15.6,27.3 24.9,57.3 27.9,89.5 1.9,21.2 1.6,32.7 -1.1,34.6 -1.5,1.1 -10.6,1.4 -46.6,1.4 -39.6,0 -44.8,-0.2 -46,-1.6 -0.8,-1 -1.2,-3.9 -1.1,-8.3 0.4,-9.9 -1.6,-28.2 -3.9,-37.5 -2.8,-11.1 -10.2,-27.4 -16.8,-37.4 -9.5,-14.2 -9.7,-14.7 -8.2,-17.5 0.7,-1.4 10.7,-11.8 22.1,-23.2 23.6,-23.5 22.7,-23 30.6,-15.4 2.6,2.5 5.3,4.2 7.6,4.5 3.1,0.6 4.1,0 10.8,-5.5 4,-3.4 7.8,-6.1 8.4,-6.1 0.7,0 2.2,1 3.3,2.2 z m -151.7,22.5 c 12,3.8 22.5,8.6 31.8,14.7 6.9,4.6 9.2,7 9.2,9.7 0,0.7 -6.7,8 -15,16.4 -13.8,13.9 -15,15.5 -15,18.8 0,4.4 3.1,7.7 7.3,7.7 2.4,0 5.5,-2.5 18.2,-15 8.9,-8.7 16.1,-15 17.2,-15 2.8,0 4.6,1.7 9.8,9.5 11.8,17.5 19.1,42.5 18.3,63.3 -0.5,14.2 2.6,13.2 -40.9,13.2 h -35.8 l -1.5,-2.2 c -1.2,-1.6 -1.6,-4.7 -1.6,-10.8 0,-7.6 -0.4,-9.3 -3.3,-15.5 -3.6,-7.4 -8,-12.1 -15,-15.7 -6,-3.1 -20.2,-3.2 -26.8,-0.1 -12,5.5 -17.7,15.2 -18.8,32 -0.4,7.6 -1,10.6 -2.1,11.3 -0.9,0.6 -16.6,1 -37.1,1 -42.9,0 -40,0.9 -40.7,-12.3 -0.4,-8.6 1.4,-22.7 4.4,-34.3 4.1,-15.8 15.6,-34.9 28.8,-47.9 17.1,-16.9 33.2,-25.3 61.1,-31.9 1.1,-0.2 10.1,-0.3 20,-0.1 16.6,0.3 18.7,0.5 27.5,3.2 z m -499.3,49.6 c 1.6,1.6 1.9,4.5 2.3,25.7 0.3,15.8 0.9,24.3 1.6,25 0.6,0.6 6,1.5 12,1.8 13.4,0.9 13.4,0.8 13.4,16.9 0,12.4 0.4,13.1 7.4,14.7 1.7,0.4 5.6,2.1 8.9,3.7 3.2,1.6 6.8,2.9 7.9,2.9 1.1,0 5.2,-1.5 9.1,-3.4 4,-1.8 8.7,-3.6 10.6,-4 5.8,-1.1 6.1,-1.7 6.1,-14.5 0,-15.7 0,-15.7 13,-16.3 7.7,-0.4 10.5,-0.9 11.8,-2.2 1.5,-1.4 1.8,-4.9 2.2,-25.6 0.4,-17.7 0.8,-24.2 1.8,-25.2 1,-1 13.9,-1.4 62.1,-1.6 71.9,-0.3 66.3,-1.2 64.3,10.9 -0.6,4.1 -1.9,11.2 -2.8,15.9 -1.8,9.2 -2.6,52 -1.1,57.3 0.4,1.5 2.3,4.4 4.1,6.5 2.4,2.6 4.2,6.4 6.2,13.2 l 2.9,9.5 v 54.5 54.5 l -2.9,5 c -3.5,6.1 -6.5,8.8 -13.1,12 l -5,2.5 h -39.7 -39.7 l -1.5,-2.2 c -1.4,-1.9 -1.6,-7.1 -1.6,-36.6 0,-21.7 -0.4,-35 -1,-36.3 -1.4,-2.5 -2.8,-2.4 -8.1,0.4 -4.2,2.3 -29.9,15.5 -56.9,29.4 -6.9,3.5 -13.3,7.3 -14.3,8.5 -1.4,1.7 -1.7,4.2 -1.7,17.2 0,16.6 -0.9,19.6 -5.5,19.6 -4.6,0 -5.5,-3.1 -5.5,-19.2 0,-14.7 0,-14.8 -2.7,-17.7 -2.5,-2.6 -14.7,-9.1 -63.6,-34 -10.2,-5.1 -13.2,-6.3 -14.5,-5.4 -1.5,0.9 -1.8,4.7 -2.2,37 -0.4,28.5 -0.8,36.3 -1.9,37.6 -1.2,1.5 -5.2,1.7 -39.3,1.7 H 72.198895 l -5.7,-2.9 c -7,-3.5 -9.3,-6 -12.6,-13.1 l -2.6,-5.5 v -108.6 c 0,-114.9 -0.2,-110 4.5,-111.2 1.1,-0.3 30.7,-0.4 65.699995,-0.3 59.7,0.1 63.8,0.2 65.5,1.9 z m 476.7,45 c 6.7,3.8 7.9,7 8.6,23.6 0.4,8.1 1.2,15.6 1.9,16.8 1.9,3.6 5,4.7 14.6,5.3 8.2,0.5 9,0.7 9.3,2.6 0.4,2.5 -6.4,8.9 -14.2,13.3 -9.1,5.2 -16.5,7.1 -27.6,7.1 -15,0 -27.6,-4.9 -37.7,-14.6 -6.7,-6.4 -5.9,-7.8 5.2,-8.4 9.6,-0.6 12.7,-1.7 14.7,-5.3 0.6,-1.2 1.4,-8.4 1.7,-16.7 0.5,-12.1 0.9,-15.1 2.7,-18 2.5,-4.3 8.7,-8 13.4,-8 1.9,0 5.3,1 7.4,2.3 z m -66.4,53.9 c 14.7,20.1 36.3,31.4 59.5,31.2 22.5,-0.2 43.6,-11 57.1,-29.3 3.2,-4.2 6.4,-8.2 7.2,-8.9 1.2,-0.9 13.4,-1.2 53.4,-1.2 50.5,0 51.8,0 52.8,2 1.1,2.1 0.9,3.6 -2.2,14.5 -14.8,52 -55.3,96.1 -106,115.5 -19.7,7.5 -49.3,12.6 -67.8,11.7 -34.9,-1.9 -64.3,-11.2 -91.5,-29.2 -34.9,-23.1 -59.2,-55.7 -72,-97.1 -2.4,-7.6 -3.2,-15.3 -1.8,-16.7 0.3,-0.4 24.2,-0.7 52.9,-0.7 h 52.3 z m 257.4,-0.9 c 8.4,9.9 10.1,16.6 7,28.1 -2.5,9.1 -2.6,9.1 -12.3,5.6 -4.6,-1.7 -9.2,-3.5 -10.2,-4.1 -2.3,-1.2 -2.4,-4.2 -0.3,-10 0.8,-2.4 2.4,-8.2 3.5,-12.7 1,-4.6 2.4,-9.2 2.9,-10.3 1.8,-3.2 4.6,-2.2 9.4,3.4 z m -353.8,73.4 c 13.1,15 18.4,21.6 18.4,22.8 0,2.7 -4.3,3.9 -13.5,4 -7.4,0 -9.7,-0.4 -13.1,-2.2 -7,-3.7 -12.1,-11.2 -10.9,-16 0.6,-2.5 12.1,-12.3 14.4,-12.3 0.8,0 2.9,1.7 4.7,3.7 z m 315.7,-0.2 c 1.5,1.4 4.7,13.8 4.7,18 0,5.3 -3.4,12.6 -8.5,18.3 l -5.3,5.7 -8.2,-8.1 -8.2,-8 1.5,-3 c 0.8,-1.6 2.5,-3.8 3.7,-4.9 1.3,-1.1 5.6,-5.9 9.7,-10.8 4.1,-4.8 7.8,-8.7 8.3,-8.7 0.5,0 1.5,0.7 2.3,1.5 z m -248.8,57.4 c 4.4,2.2 11,5.3 14.8,7 8.3,3.7 8.7,5.6 2.1,10.2 -5,3.4 -14,6.9 -17.8,6.9 -3.4,0 -15.3,-4.4 -17.7,-6.6 -3.1,-2.8 -3.2,-2.5 6.8,-19.2 0.7,-1.2 1.9,-2.2 2.6,-2.2 0.6,0 4.8,1.8 9.2,3.9 z m 186.5,1.1 c 0,4.1 -2.9,16.1 -4.4,18.5 -4,6.1 -15.3,13.5 -20.7,13.5 -1.9,0 -2.2,-0.5 -5.1,-9 -0.9,-2.5 -2.2,-5.9 -2.9,-7.7 -1.1,-2.8 -1.1,-3.4 0.5,-5.2 1,-1.1 3.5,-2.6 5.5,-3.2 2,-0.6 7.7,-3.1 12.6,-5.4 13.2,-6.3 14.5,-6.4 14.5,-1.5 z m -81.3,21.3 c 1.9,2 -5.6,13.7 -11.8,18.3 -4.4,3.2 -11.9,5.4 -18.6,5.4 -4.4,0 -5.5,-0.4 -6.8,-2.4 -1.3,-1.9 -1.4,-3.2 -0.6,-6.7 0.6,-2.4 1.1,-6.5 1.1,-9.1 0,-3.3 0.5,-5 1.6,-5.6 1.8,-1 34.1,-0.9 35.1,0.1 z"
     id="path4"
     style="fill:#000000;stroke:none;stroke-width:0.1"
     sodipodi:nodetypes="cccccssscsccccsccccccscccccccccccccccccccccccscccssscccsccccccccscscccsccccssccccsscsssccccccscscccccccccccccccccccccccccccsccssccscscccsccsccccssscccsccccssccsccccsccsssscsccsccccscccccccccscccscsscsccsccscccccsccccccscscsccsccscccscccccccccccccccsccccssscccccsccccsccsccccccscccccscccccscccccccscccccccccccscccsccsccccsccsccccsccscscscccscsccsccscc" />
  <path
     d="m 262.39889,76.364969 c -6,6.9 -4.8,9 17.9,32.000001 10.8,10.9 19,20 19,21 0,1.1 -7.8,9.7 -17.9,19.9 -9.8,10 -18.5,19.2 -19.5,20.6 -5.2,7.9 2.5,18.2 11.6,15.5 2.7,-0.9 49.3,-46.8 51.4,-50.7 2.4,-4.6 1.7,-8.2 -2.5,-13.5 -4.4,-5.4 -42.1,-42.900001 -46.5,-46.100001 -1.7,-1.4 -4.3,-2.2 -6.6,-2.2 -3.1,0 -4.4,0.7 -6.9,3.5 z"
     id="path6"
     style="fill:#000000;stroke:none;stroke-width:0.1" />
  <path
     d="m 670.79889,302.56497 c -5.6,1.4 -7.6,9.1 -3.4,12.9 2.8,2.5 14,3.3 17.3,1.1 4.2,-2.8 3.9,-9.2 -0.6,-12 -2.5,-1.6 -10.2,-2.8 -13.3,-2 z"
     id="path10"
     style="fill:#000000;stroke:none;stroke-width:0.1" />
  <path
     d="m 707.49889,312.16497 c -3.8,4.1 -2.2,10.8 3.2,12.7 11.7,4.3 14.8,5.4 20.1,7.7 3.3,1.3 8.7,3.8 11.9,5.4 6.7,3.3 13.08611,3.54339 15.22225,0.46534 4.14106,-7.82042 -4.02874,-12.65008 -20.01021,-20.10981 -13.2,-4.7 -27.31204,-9.45553 -30.41204,-6.15553 z"
     id="path12"
     style="fill:#000000;stroke:none;stroke-width:0.1"
     sodipodi:nodetypes="ccccccc" />
  <path
     d="m 213.79889,569.36497 c -13.2,6.9 -29.6,15.3 -36.4,18.7 -12.9,6.6 -16.6,9.8 -14,12.2 1.5,1.4 10.7,6.3 50,26.5 17.8,9.1 24.6,12.1 27.4,12.1 2.7,0 8.3,-2.4 20.9,-8.9 9.4,-4.8 25.7,-13.2 36.1,-18.6 10.5,-5.4 19.6,-10.3 20.3,-11 2.2,-2 -0.2,-5.2 -5.6,-7.8 -2.6,-1.3 -11.7,-6 -20.2,-10.4 -40.9,-21.2 -49.2,-25.3 -51.8,-25.2 -1.5,0 -13.5,5.6 -26.7,12.4 z"
     id="path14"
     style="fill:#000000;stroke:none;stroke-width:0.1" />
  <path
     d="m 652.49889,503.46497 c -5.1,3.6 -4.9,9.9 0.5,12.3 5.8,2.7 13.2,-3.5 10.4,-8.8 -1.4,-2.5 -5,-5.1 -7.1,-5.1 -0.9,0 -2.6,0.7 -3.8,1.6 z"
     id="path16"
     style="fill:#000000;stroke:none;stroke-width:0.1" />
  <path
     d="m 540.79889,608.36497 c -4.3,4.2 -2.4,10.7 4.9,16.4 5.1,4 8.6,4 12,0 1.4,-1.7 2.6,-3.5 2.6,-4 0,-4.3 -10.4,-14.9 -14.5,-14.9 -1.4,0 -3.7,1.1 -5,2.5 z"
     id="path18"
     style="fill:#000000;stroke:none;stroke-width:0.1" />
  <path
     d="m 571.29889,633.86497 c -2.4,2.4 -2.6,6.7 -0.4,9.8 4.2,6 31.7,17.8 51.4,22.2 19.5,4.3 47.2,4.5 65.8,0.5 11.7,-2.5 26.4,-7.5 29,-9.8 2.8,-2.6 3,-8.7 0.5,-10.9 -3.4,-2.8 -5.4,-2.8 -16.6,0.6 -39,11.8 -78.6,8.1 -114.1,-10.7 -7.8,-4.2 -12.6,-4.7 -15.6,-1.7 z"
     id="path20"
     style="fill:#000000;stroke:none;stroke-width:0.1" />
  <path
     style="fill:#000000;fill-opacity:1;stroke:#000000;stroke-width:19.4673;stroke-linecap:round;stroke-linejoin:miter;stroke-miterlimit:4;stroke-dasharray:none;stroke-opacity:1"
     d="m 345.84508,175.35693 h 79.82289"
     id="path862" />
</svg>
